<?xml version="1.0" encoding="utf-8"?>
<!-- Generator: Adobe Illustrator 18.1.1, SVG Export Plug-In . SVG Version: 6.00 Build 0)  -->
<svg version="1.1" id="Layer_1" xmlns="http://www.w3.org/2000/svg" xmlns:xlink="http://www.w3.org/1999/xlink" x="0px" y="0px"
	 viewBox="0 0 1024 768" enable-background="new 0 0 1024 768" xml:space="preserve">
<g>
	<path d="M213,685c0-200,0-400,0-600c200,0,400,0,600,0c0,200,0,400,0,600C613,685,413,685,213,685z M380.8,151.1
		c0-7.1,0-13.5,0-19.7c-40.6,0-80.9,0-121.1,0c0,169.7,0,339,0,508.3c40.6,0,80.9,0,121.1,0c0-6.7,0-13.1,0-19.7
		c-16.1,0-31.7,0.1-47.4,0c-3.5,0-7-0.2-10.4-0.9c-7.4-1.5-12.9-5.8-15-13.1c-1.4-5.1-2.1-10.5-2.1-15.7
		c-0.1-137.3-0.1-274.6-0.1-411.9c0-20.6,6.7-27.3,27.2-27.3C348.9,151.1,364.7,151.1,380.8,151.1z M646.8,151.1c2.3,0,4.1,0,5.9,0
		c14.8,0,29.7,0,44.5,0c14.6,0.1,21.9,6.2,24.2,20.5c0.6,3.6,0.6,7.3,0.6,10.9c0,136,0,271.9,0,407.9c0,2.2,0,4.3-0.1,6.5
		c-0.7,15.4-7.6,22.5-23,23c-8.8,0.3-17.7,0.1-26.5,0.1c-8.5,0-16.9,0-25.6,0c0,6.9,0,13.2,0,19.7c40.6,0,80.8,0,121.2,0
		c0-169.6,0-339,0-508.4c-40.6,0-80.8,0-121.3,0C646.8,137.8,646.8,144.1,646.8,151.1z M405.6,317.4c1.7,0.5,3,0.8,4.2,1.3
		c4.4,1.8,7.7,1.2,10.4-3.2c1.6-2.6,4.4-4.6,6.9-6.4c12.7-9.5,27.4-13.2,42.9-11.9c13.1,1.1,26.1,3.9,39.2,6
		c-1.3,3.4-2.2,5.4-2.9,7.4c-15.8,43.3-31.6,86.6-47.4,129.9c-7.1,19.5-14.5,39-21.2,58.7c-4.8,14.3-0.3,30,10.8,37.1
		c5.3,3.4,11.8,5.1,18,6.8c15,4,33-8,34-25.1c0.3-5.1,0.1-10.4,1-15.4c5.6-31.2,15.7-61.2,25.4-91.3c9.9-30.9,20.6-61.6,30.5-92.5
		c1.6-4.9,3.4-5.3,8-4.5c14.4,2.4,28.9,5,43.4,5.7c22.3,1.1,38.3-9.5,47.2-30.1c3.4-7.9,5.9-16.3,8.9-24.6
		c-6.6-1.2-11.5-2.1-13.4,5.1c-0.6,2.2-3.3,4.5-5.6,5.4c-6,2.2-12.2,4.7-18.5,5.3c-23.1,2.3-45.7-2.5-68.5-5.5
		c-22.6-3-45.2-6.2-68.1-5.3c-18.2,0.8-36.2,3.1-52.5,12.2C424,290.5,413.5,302.4,405.6,317.4z"/>
	<path fill="#FFFFFF" d="M380.8,151.1c-16.1,0-31.9,0-47.7,0c-20.5,0-27.2,6.7-27.2,27.3c0,137.3,0,274.6,0.1,411.9
		c0,5.3,0.7,10.7,2.1,15.7c2,7.3,7.6,11.6,15,13.1c3.4,0.7,6.9,0.9,10.4,0.9c15.6,0.1,31.3,0,47.4,0c0,6.6,0,13,0,19.7
		c-40.2,0-80.4,0-121.1,0c0-169.3,0-338.6,0-508.3c40.2,0,80.4,0,121.1,0C380.8,137.6,380.8,144,380.8,151.1z"/>
	<path fill="#FFFFFF" d="M646.8,151.1c0-7,0-13.2,0-19.8c40.5,0,80.7,0,121.3,0c0,169.5,0,338.8,0,508.4c-40.4,0-80.6,0-121.2,0
		c0-6.5,0-12.9,0-19.7c8.7,0,17.2,0,25.6,0c8.8,0,17.7,0.2,26.5-0.1c15.4-0.5,22.3-7.6,23-23c0.1-2.2,0.1-4.3,0.1-6.5
		c0-136,0-271.9,0-407.9c0-3.7-0.1-7.4-0.6-10.9c-2.3-14.2-9.6-20.4-24.2-20.5c-14.8-0.1-29.7,0-44.5,0
		C650.9,151.1,649.1,151.1,646.8,151.1z"/>
	<path fill="#FFFFFF" d="M405.6,317.4c7.8-14.9,18.3-26.8,32.8-35c16.3-9.2,34.3-11.5,52.5-12.2c22.9-1,45.5,2.3,68.1,5.3
		c22.7,3,45.4,7.7,68.5,5.5c6.3-0.6,12.5-3.1,18.5-5.3c2.3-0.9,5-3.2,5.6-5.4c2-7.2,6.8-6.2,13.4-5.1c-3,8.3-5.5,16.7-8.9,24.6
		c-8.9,20.6-24.8,31.2-47.2,30.1c-14.5-0.7-29-3.4-43.4-5.7c-4.6-0.8-6.4-0.4-8,4.5c-9.9,30.9-20.6,61.6-30.5,92.5
		c-9.6,30.1-19.8,60.1-25.4,91.3c-0.9,5-0.7,10.3-1,15.4c-1,17.2-19,29.1-34,25.1c-6.2-1.6-12.7-3.4-18-6.8
		c-11.1-7.1-15.6-22.9-10.8-37.1c6.6-19.7,14-39.1,21.2-58.7c15.8-43.3,31.6-86.6,47.4-129.9c0.7-2,1.6-4,2.9-7.4
		c-13.1-2.1-26.1-4.9-39.2-6c-15.5-1.3-30.1,2.4-42.9,11.9c-2.5,1.9-5.3,3.9-6.9,6.4c-2.8,4.4-6,5-10.4,3.2
		C408.6,318.2,407.4,317.9,405.6,317.4z"/>
</g>
</svg>
